<mxfile host="app.diagrams.net" modified="2023-11-19T13:03:51.632Z" agent="Mozilla/5.0 (Windows NT 10.0; Win64; x64) AppleWebKit/537.36 (KHTML, like Gecko) Chrome/118.0.0.0 Safari/537.36 Edg/118.0.2088.61" etag="DIZeUaIPvv9mvsYDJ1I_" version="22.1.3" type="github">
  <diagram name="Page-1" id="cilC4-Jx2IBT6WquJS7A">
    <mxGraphModel dx="1066" dy="613" grid="1" gridSize="10" guides="1" tooltips="1" connect="1" arrows="1" fold="1" page="1" pageScale="1" pageWidth="850" pageHeight="1100" math="0" shadow="0">
      <root>
        <mxCell id="0" />
        <mxCell id="1" parent="0" />
        <mxCell id="4c3GJ6am2oMrJYlNIWOt-15" value="" style="rounded=0;whiteSpace=wrap;html=1;" vertex="1" parent="1">
          <mxGeometry x="130" y="130" width="590" height="390" as="geometry" />
        </mxCell>
        <mxCell id="4c3GJ6am2oMrJYlNIWOt-16" value="&lt;font style=&quot;font-size: 13px;&quot;&gt;acounts&lt;/font&gt;" style="rounded=0;whiteSpace=wrap;html=1;align=center;verticalAlign=middle;fontSize=13;fillColor=#dae8fc;strokeColor=#6c8ebf;" vertex="1" parent="1">
          <mxGeometry x="130" y="130" width="160" height="60" as="geometry" />
        </mxCell>
        <mxCell id="4c3GJ6am2oMrJYlNIWOt-18" value="&lt;font style=&quot;font-size: 14px;&quot;&gt;username&lt;/font&gt;" style="rounded=0;whiteSpace=wrap;html=1;align=center;verticalAlign=middle;" vertex="1" parent="1">
          <mxGeometry x="130" y="210" width="200" height="50" as="geometry" />
        </mxCell>
        <mxCell id="4c3GJ6am2oMrJYlNIWOt-19" value="&lt;font style=&quot;font-size: 14px;&quot;&gt;email&lt;/font&gt;" style="rounded=0;whiteSpace=wrap;html=1;align=center;verticalAlign=middle;" vertex="1" parent="1">
          <mxGeometry x="330" y="210" width="190" height="50" as="geometry" />
        </mxCell>
        <mxCell id="4c3GJ6am2oMrJYlNIWOt-20" value="password" style="rounded=0;whiteSpace=wrap;html=1;align=center;verticalAlign=middle;fontSize=14;" vertex="1" parent="1">
          <mxGeometry x="520" y="210" width="200" height="50" as="geometry" />
        </mxCell>
        <mxCell id="4c3GJ6am2oMrJYlNIWOt-21" value="&lt;font style=&quot;font-size: 13px;&quot;&gt;acounts&lt;/font&gt;" style="rounded=0;whiteSpace=wrap;html=1;align=center;verticalAlign=middle;fontSize=13;" vertex="1" parent="1">
          <mxGeometry x="290" y="130" width="260" height="60" as="geometry" />
        </mxCell>
        <mxCell id="4c3GJ6am2oMrJYlNIWOt-22" value="&lt;font style=&quot;font-size: 13px;&quot;&gt;acounts&lt;/font&gt;" style="rounded=0;whiteSpace=wrap;html=1;align=center;verticalAlign=middle;fontSize=13;" vertex="1" parent="1">
          <mxGeometry x="545" y="130" width="175" height="60" as="geometry" />
        </mxCell>
        <mxCell id="4c3GJ6am2oMrJYlNIWOt-24" value="username&lt;span style=&quot;white-space: pre;&quot;&gt;&lt;span style=&quot;white-space: pre;&quot;&gt;&lt;span style=&quot;white-space: pre;&quot;&gt;&#x9;&lt;/span&gt;&lt;/span&gt;&lt;/span&gt;email&lt;span style=&quot;white-space: pre;&quot;&gt;&#x9;&lt;/span&gt;&lt;span style=&quot;white-space: pre;&quot;&gt;&#x9;&lt;/span&gt;passworld&lt;span style=&quot;white-space: pre;&quot;&gt;&#x9;&lt;/span&gt;&lt;span style=&quot;white-space: pre;&quot;&gt;&#x9;&lt;/span&gt;edit/delete" style="rounded=1;whiteSpace=wrap;html=1;align=left;" vertex="1" parent="1">
          <mxGeometry x="225" y="290" width="400" height="30" as="geometry" />
        </mxCell>
        <mxCell id="4c3GJ6am2oMrJYlNIWOt-23" value="" style="ellipse;whiteSpace=wrap;html=1;aspect=fixed;fillColor=#fff2cc;strokeColor=#d6b656;" vertex="1" parent="1">
          <mxGeometry x="180" y="285" width="40" height="40" as="geometry" />
        </mxCell>
        <mxCell id="4c3GJ6am2oMrJYlNIWOt-27" value="" style="rounded=0;whiteSpace=wrap;html=1;" vertex="1" parent="1">
          <mxGeometry x="220" y="410" width="410" height="60" as="geometry" />
        </mxCell>
        <mxCell id="4c3GJ6am2oMrJYlNIWOt-28" value="" style="rounded=1;whiteSpace=wrap;html=1;" vertex="1" parent="1">
          <mxGeometry x="240" y="425" width="70" height="30" as="geometry" />
        </mxCell>
        <mxCell id="4c3GJ6am2oMrJYlNIWOt-29" value="" style="rounded=1;whiteSpace=wrap;html=1;" vertex="1" parent="1">
          <mxGeometry x="390" y="425" width="70" height="30" as="geometry" />
        </mxCell>
        <mxCell id="4c3GJ6am2oMrJYlNIWOt-30" value="" style="rounded=1;whiteSpace=wrap;html=1;" vertex="1" parent="1">
          <mxGeometry x="520" y="425" width="70" height="30" as="geometry" />
        </mxCell>
      </root>
    </mxGraphModel>
  </diagram>
</mxfile>
